<svg xmlns="http://www.w3.org/2000/svg" xmlns:xlink="http://www.w3.org/1999/xlink" width="200" zoomAndPan="magnify" viewBox="0 0 150 74.999997" height="100" preserveAspectRatio="xMidYMid meet" version="1.0"><defs><g/><clipPath id="3593035c69"><path d="M 24 21.625 L 70.5625 21.625 L 70.5625 51 L 24 51 Z M 24 21.625 " clip-rule="nonzero"/></clipPath><clipPath id="79487671dc"><path d="M 3.0625 39 L 30 39 L 30 43 L 3.0625 43 Z M 3.0625 39 " clip-rule="nonzero"/></clipPath></defs><g fill="#276617" fill-opacity="1"><g transform="translate(75.258738, 51.956028)"><g><path d="M 2.148438 0 L 8.640625 0 L 8.640625 -11.605469 C 9.027344 -11.777344 9.457031 -11.90625 10.101562 -11.90625 C 16.117188 -11.90625 11.648438 -2.0625 20.632812 0 C 23.082031 0.558594 25.445312 0 25.445312 0 C 25.445312 0 23.640625 -1.375 22.4375 -4.382812 C 20.632812 -8.898438 19.214844 -13.496094 13.582031 -13.496094 C 11.820312 -13.496094 10.230469 -13.023438 9.027344 -12.121094 L 19.816406 -24.070312 L 19.300781 -24.070312 L 8.640625 -12.335938 L 8.640625 -24.070312 L 2.148438 -24.070312 Z M 2.148438 0 "/></g></g></g><g fill="#276617" fill-opacity="1"><g transform="translate(98.208015, 51.956028)"><g><path d="M 5.5 -19.902344 C 7.394531 -19.902344 8.898438 -21.40625 8.898438 -23.296875 C 8.898438 -25.144531 7.394531 -26.648438 5.5 -26.648438 C 3.652344 -26.648438 2.148438 -25.144531 2.148438 -23.296875 C 2.148438 -21.40625 3.652344 -19.902344 5.5 -19.902344 Z M 2.363281 0 L 8.640625 0 L 8.640625 -17.492188 L 2.363281 -17.535156 Z M 2.363281 0 "/></g></g></g><g fill="#276617" fill-opacity="1"><g transform="translate(106.115284, 51.956028)"><g><path d="M 9.714844 0.429688 L 15.730469 -12.9375 L 22.480469 0.429688 L 30.558594 -17.535156 L 30.085938 -17.535156 L 25.144531 -6.707031 L 19.945312 -17.535156 L 13.410156 -17.535156 L 15.472656 -13.453125 L 12.378906 -6.707031 L 7.179688 -17.535156 L 0.644531 -17.535156 Z M 9.714844 0.429688 "/></g></g></g><g fill="#276617" fill-opacity="1"><g transform="translate(134.17884, 51.956028)"><g><path d="M 5.5 -19.902344 C 7.394531 -19.902344 8.898438 -21.40625 8.898438 -23.296875 C 8.898438 -25.144531 7.394531 -26.648438 5.5 -26.648438 C 3.652344 -26.648438 2.148438 -25.144531 2.148438 -23.296875 C 2.148438 -21.40625 3.652344 -19.902344 5.5 -19.902344 Z M 2.363281 0 L 8.640625 0 L 8.640625 -17.492188 L 2.363281 -17.535156 Z M 2.363281 0 "/></g></g></g><g clip-path="url(#3593035c69)"><path fill="#573d2c" d="M 70.445312 29.511719 L 65.789062 48.859375 C 65.789062 49.046875 65.75 49.226562 65.679688 49.398438 C 65.609375 49.570312 65.507812 49.71875 65.375 49.851562 C 65.246094 49.984375 65.09375 50.085938 64.921875 50.15625 C 64.75 50.226562 64.570312 50.265625 64.386719 50.265625 L 32.992188 50.492188 C 32.808594 50.492188 32.628906 50.457031 32.457031 50.382812 C 32.285156 50.3125 32.132812 50.210938 32 50.078125 C 31.871094 49.949219 31.769531 49.796875 31.699219 49.625 C 31.625 49.453125 31.589844 49.273438 31.589844 49.089844 L 31.589844 29.507812 C 31.589844 29.46875 31.589844 29.429688 31.59375 29.394531 L 31.171875 25.605469 L 26.53125 25.605469 C 26.273438 25.59375 26.027344 25.535156 25.792969 25.429688 C 25.558594 25.324219 25.351562 25.179688 25.175781 24.996094 C 24.996094 24.808594 24.859375 24.597656 24.765625 24.359375 C 24.667969 24.121094 24.621094 23.875 24.621094 23.617188 C 24.621094 23.359375 24.667969 23.113281 24.765625 22.875 C 24.859375 22.636719 24.996094 22.425781 25.175781 22.238281 C 25.351562 22.054688 25.558594 21.910156 25.792969 21.804688 C 26.027344 21.699219 26.273438 21.640625 26.53125 21.628906 L 34.722656 21.628906 C 34.722656 21.636719 34.722656 21.644531 34.722656 21.652344 L 35.164062 25.605469 L 35.445312 28.105469 L 69.042969 28.105469 C 69.230469 28.105469 69.410156 28.144531 69.582031 28.214844 C 69.753906 28.285156 69.902344 28.386719 70.035156 28.519531 C 70.167969 28.652344 70.269531 28.800781 70.339844 28.972656 C 70.410156 29.144531 70.445312 29.324219 70.445312 29.511719 Z M 70.445312 29.511719 " fill-opacity="1" fill-rule="nonzero"/></g><path fill="#573d2c" d="M 41.359375 56.855469 C 41.359375 57.191406 41.324219 57.523438 41.257812 57.851562 C 41.195312 58.183594 41.097656 58.5 40.96875 58.8125 C 40.839844 59.121094 40.683594 59.417969 40.496094 59.695312 C 40.308594 59.976562 40.097656 60.234375 39.859375 60.46875 C 39.621094 60.707031 39.363281 60.921875 39.085938 61.105469 C 38.804688 61.292969 38.511719 61.449219 38.199219 61.578125 C 37.890625 61.707031 37.570312 61.804688 37.242188 61.871094 C 36.914062 61.933594 36.582031 61.96875 36.246094 61.96875 C 35.910156 61.96875 35.578125 61.933594 35.246094 61.871094 C 34.917969 61.804688 34.597656 61.707031 34.289062 61.578125 C 33.976562 61.449219 33.683594 61.292969 33.402344 61.105469 C 33.125 60.921875 32.867188 60.707031 32.628906 60.46875 C 32.390625 60.234375 32.179688 59.976562 31.992188 59.695312 C 31.804688 59.417969 31.648438 59.121094 31.519531 58.8125 C 31.390625 58.5 31.296875 58.183594 31.230469 57.851562 C 31.164062 57.523438 31.132812 57.191406 31.132812 56.855469 C 31.132812 56.519531 31.164062 56.1875 31.230469 55.859375 C 31.296875 55.527344 31.390625 55.207031 31.519531 54.898438 C 31.648438 54.589844 31.804688 54.292969 31.992188 54.015625 C 32.179688 53.734375 32.390625 53.476562 32.628906 53.238281 C 32.867188 53.003906 33.125 52.789062 33.402344 52.605469 C 33.683594 52.417969 33.976562 52.257812 34.289062 52.132812 C 34.597656 52.003906 34.917969 51.90625 35.246094 51.839844 C 35.578125 51.773438 35.910156 51.742188 36.246094 51.742188 C 36.582031 51.742188 36.914062 51.773438 37.242188 51.839844 C 37.570312 51.90625 37.890625 52.003906 38.199219 52.132812 C 38.511719 52.257812 38.804688 52.417969 39.085938 52.605469 C 39.363281 52.789062 39.621094 53.003906 39.859375 53.238281 C 40.097656 53.476562 40.308594 53.734375 40.496094 54.015625 C 40.683594 54.292969 40.839844 54.589844 40.96875 54.898438 C 41.097656 55.207031 41.195312 55.527344 41.257812 55.859375 C 41.324219 56.1875 41.359375 56.519531 41.359375 56.855469 Z M 41.359375 56.855469 " fill-opacity="1" fill-rule="nonzero"/><path fill="#573d2c" d="M 55.789062 56.855469 C 55.789062 57.191406 55.757812 57.523438 55.691406 57.851562 C 55.625 58.183594 55.527344 58.5 55.398438 58.8125 C 55.269531 59.121094 55.113281 59.417969 54.925781 59.695312 C 54.742188 59.976562 54.527344 60.234375 54.289062 60.46875 C 54.054688 60.707031 53.796875 60.921875 53.515625 61.105469 C 53.238281 61.292969 52.941406 61.449219 52.632812 61.578125 C 52.320312 61.707031 52.003906 61.804688 51.671875 61.871094 C 51.34375 61.933594 51.011719 61.96875 50.675781 61.96875 C 50.339844 61.96875 50.007812 61.933594 49.679688 61.871094 C 49.347656 61.804688 49.027344 61.707031 48.71875 61.578125 C 48.410156 61.449219 48.113281 61.292969 47.835938 61.105469 C 47.554688 60.921875 47.296875 60.707031 47.058594 60.46875 C 46.824219 60.234375 46.609375 59.976562 46.425781 59.695312 C 46.238281 59.417969 46.078125 59.121094 45.953125 58.8125 C 45.824219 58.5 45.726562 58.183594 45.660156 57.851562 C 45.59375 57.523438 45.5625 57.191406 45.5625 56.855469 C 45.5625 56.519531 45.59375 56.1875 45.660156 55.859375 C 45.726562 55.527344 45.824219 55.207031 45.953125 54.898438 C 46.078125 54.589844 46.238281 54.292969 46.425781 54.015625 C 46.609375 53.734375 46.824219 53.476562 47.058594 53.238281 C 47.296875 53.003906 47.554688 52.789062 47.835938 52.605469 C 48.113281 52.417969 48.410156 52.257812 48.71875 52.132812 C 49.027344 52.003906 49.347656 51.90625 49.679688 51.839844 C 50.007812 51.773438 50.339844 51.742188 50.675781 51.742188 C 51.011719 51.742188 51.34375 51.773438 51.671875 51.839844 C 52.003906 51.90625 52.320312 52.003906 52.632812 52.132812 C 52.941406 52.257812 53.238281 52.417969 53.515625 52.605469 C 53.796875 52.789062 54.054688 53.003906 54.289062 53.238281 C 54.527344 53.476562 54.742188 53.734375 54.925781 54.015625 C 55.113281 54.292969 55.269531 54.589844 55.398438 54.898438 C 55.527344 55.207031 55.625 55.527344 55.691406 55.859375 C 55.757812 56.1875 55.789062 56.519531 55.789062 56.855469 Z M 55.789062 56.855469 " fill-opacity="1" fill-rule="nonzero"/><path fill="#573d2c" d="M 16.472656 29.8125 L 28.175781 29.8125 C 28.359375 29.8125 28.53125 29.84375 28.699219 29.914062 C 28.867188 29.984375 29.011719 30.082031 29.140625 30.210938 C 29.269531 30.339844 29.367188 30.484375 29.4375 30.652344 C 29.503906 30.820312 29.539062 30.992188 29.539062 31.175781 L 29.539062 31.515625 C 29.539062 31.695312 29.503906 31.871094 29.4375 32.035156 C 29.367188 32.203125 29.269531 32.351562 29.140625 32.480469 C 29.011719 32.605469 28.867188 32.707031 28.699219 32.773438 C 28.53125 32.84375 28.359375 32.878906 28.175781 32.878906 L 16.472656 32.878906 C 16.292969 32.878906 16.117188 32.84375 15.949219 32.773438 C 15.785156 32.707031 15.636719 32.605469 15.507812 32.480469 C 15.378906 32.351562 15.28125 32.203125 15.214844 32.035156 C 15.144531 31.871094 15.109375 31.695312 15.109375 31.515625 L 15.109375 31.175781 C 15.109375 30.992188 15.144531 30.820312 15.214844 30.652344 C 15.28125 30.484375 15.378906 30.339844 15.507812 30.210938 C 15.636719 30.082031 15.785156 29.984375 15.949219 29.914062 C 16.117188 29.84375 16.292969 29.8125 16.472656 29.8125 Z M 16.472656 29.8125 " fill-opacity="1" fill-rule="nonzero"/><path fill="#573d2c" d="M 16.472656 48.902344 L 28.175781 48.902344 C 28.359375 48.902344 28.53125 48.933594 28.699219 49.003906 C 28.867188 49.074219 29.011719 49.171875 29.140625 49.300781 C 29.269531 49.429688 29.367188 49.574219 29.4375 49.742188 C 29.503906 49.910156 29.539062 50.082031 29.539062 50.265625 L 29.539062 50.605469 C 29.539062 50.785156 29.503906 50.960938 29.4375 51.128906 C 29.367188 51.292969 29.269531 51.441406 29.140625 51.570312 C 29.011719 51.695312 28.867188 51.796875 28.699219 51.863281 C 28.53125 51.933594 28.359375 51.96875 28.175781 51.96875 L 16.472656 51.96875 C 16.292969 51.96875 16.117188 51.933594 15.949219 51.863281 C 15.785156 51.796875 15.636719 51.695312 15.507812 51.570312 C 15.378906 51.441406 15.28125 51.292969 15.214844 51.128906 C 15.144531 50.960938 15.109375 50.785156 15.109375 50.605469 L 15.109375 50.265625 C 15.109375 50.082031 15.144531 49.910156 15.214844 49.742188 C 15.28125 49.574219 15.378906 49.429688 15.507812 49.300781 C 15.636719 49.171875 15.785156 49.074219 15.949219 49.003906 C 16.117188 48.933594 16.292969 48.902344 16.472656 48.902344 Z M 16.472656 48.902344 " fill-opacity="1" fill-rule="nonzero"/><g clip-path="url(#79487671dc)"><path fill="#573d2c" d="M 4.597656 39.128906 L 28.007812 39.128906 C 28.210938 39.128906 28.40625 39.167969 28.59375 39.246094 C 28.78125 39.324219 28.945312 39.433594 29.089844 39.578125 C 29.234375 39.722656 29.34375 39.886719 29.421875 40.074219 C 29.5 40.261719 29.539062 40.460938 29.539062 40.664062 C 29.539062 40.867188 29.5 41.0625 29.421875 41.25 C 29.34375 41.4375 29.234375 41.601562 29.089844 41.746094 C 28.945312 41.890625 28.78125 42.003906 28.59375 42.078125 C 28.40625 42.15625 28.210938 42.195312 28.007812 42.195312 L 4.597656 42.195312 C 4.394531 42.195312 4.199219 42.15625 4.011719 42.078125 C 3.824219 42.003906 3.65625 41.890625 3.511719 41.746094 C 3.371094 41.601562 3.257812 41.4375 3.179688 41.25 C 3.101562 41.0625 3.0625 40.867188 3.0625 40.664062 C 3.0625 40.460938 3.101562 40.261719 3.179688 40.074219 C 3.257812 39.886719 3.371094 39.722656 3.511719 39.578125 C 3.65625 39.433594 3.824219 39.324219 4.011719 39.246094 C 4.199219 39.167969 4.394531 39.128906 4.597656 39.128906 Z M 4.597656 39.128906 " fill-opacity="1" fill-rule="nonzero"/></g></svg>